<svg
    xmlns="http://www.w3.org/2000/svg"
    viewBox="0 0 166.878 51"
    preserveAspectRatio="xMidYMid meet"
>
    <path
    d="M55.9 48.522a15.849 15.849 0 01-1.158 6.122 14.305 14.305 0 01-8.013 7.975 15.865 15.865 0 01-6.072 1.146H22.82a3.4 3.4 0 01-1.321-.257 3.13 3.13 0 01-1.052-.7 3.226 3.226 0 01-.7-1.052 3.4 3.4 0 01-.257-1.321V30.652a3.346 3.346 0 01.257-1.3 3.247 3.247 0 01.7-1.064 3.132 3.132 0 011.052-.714 3.38 3.38 0 011.321-.252h17.841a15.865 15.865 0 016.072 1.146 14.277 14.277 0 018.013 7.988 15.9 15.9 0 011.158 6.11v5.956zm-6.611-5.947a9.68 9.68 0 00-.62-3.531 7.615 7.615 0 00-1.765-2.729 7.991 7.991 0 00-2.729-1.753 9.612 9.612 0 00-3.518-.62H26.094v23.221h14.561a9.588 9.588 0 003.518-.62 7.931 7.931 0 002.727-1.752 7.674 7.674 0 001.765-2.717 9.677 9.677 0 00.62-3.543v-5.96zM68.351 30.652h-6.6V24.68h6.6zm0 33.109h-6.6V36.292h6.6zM86.753 63.761h-2.948a10.69 10.69 0 01-3.036-.482 8.9 8.9 0 01-3.011-1.59 8.669 8.669 0 01-2.31-2.873 9.372 9.372 0 01-.914-4.332V24.68h6.6v29.81a2.574 2.574 0 00.764 1.947 2.663 2.663 0 001.9.726h2.948v6.6zM120.345 45.388a10.305 10.305 0 01-.482 2.961 8.831 8.831 0 01-1.565 2.948 8.625 8.625 0 01-2.823 2.272 9.032 9.032 0 01-4.232.914H99.324v-6.272h11.914a2.657 2.657 0 002.085-.826 2.979 2.979 0 00.739-2.047 2.592 2.592 0 00-.826-2.034 2.907 2.907 0 00-2-.739H99.324a2.657 2.657 0 00-2.085.826 2.949 2.949 0 00-.739 2.047v9.224a2.62 2.62 0 00.826 2.06 2.949 2.949 0 002.047.739l19.882.063v6.238H99.324a10.305 10.305 0 01-2.961-.482 8.832 8.832 0 01-2.948-1.565 8.626 8.626 0 01-2.272-2.823 9.032 9.032 0 01-.914-4.232v-9.272a10.305 10.305 0 01.482-2.961 8.832 8.832 0 011.565-2.948 8.626 8.626 0 012.823-2.272 9.032 9.032 0 014.232-.914h11.919a10.305 10.305 0 012.961.482 8.832 8.832 0 012.948 1.565 8.626 8.626 0 012.272 2.823 9.005 9.005 0 01.914 4.225zM151.394 63.761h-17.916a10.685 10.685 0 01-3-.482 8.731 8.731 0 01-3.011-1.59 8.827 8.827 0 01-2.31-2.873 9.215 9.215 0 01-.926-4.332v-8.94a9.794 9.794 0 01.213-1.984 10.135 10.135 0 01.676-2.072 9.691 9.691 0 011.183-1.972 7.884 7.884 0 011.753-1.653 8.924 8.924 0 012.379-1.146 9.96 9.96 0 013.049-.432H151.4v6.6h-17.916a2.693 2.693 0 00-1.972.664 2.732 2.732 0 00-.676 2.034v8.9a2.692 2.692 0 00.689 1.984 2.725 2.725 0 002.009.689H151.4v6.6zM177.122 63.762h-11.919a10.69 10.69 0 01-3.036-.482 8.9 8.9 0 01-3.011-1.59 8.669 8.669 0 01-2.31-2.873 9.372 9.372 0 01-.914-4.332V36.292h6.6v18.2a2.692 2.692 0 00.689 1.984 2.758 2.758 0 002.034.689h11.869v6.6zm9.246 2.642a10.1 10.1 0 01-.432 3.061 8.916 8.916 0 01-1.146 2.391 7.751 7.751 0 01-1.653 1.753 9.691 9.691 0 01-1.972 1.183 10.135 10.135 0 01-2.072.676 9.792 9.792 0 01-1.984.213H165.19v-6.6h11.919a2.643 2.643 0 001.984-.689 2.76 2.76 0 00.657-1.984V36.292h6.6v30.11z"
    className="a"
    fill="currentColor"
    transform="translate(-19.49 -24.68)"
    ></path>
</svg>