<?xml version="1.0" encoding="utf-8"?>
<!-- Generator: Adobe Illustrator 24.1.2, SVG Export Plug-In . SVG Version: 6.00 Build 0)  -->
<!DOCTYPE svg PUBLIC "-//W3C//DTD SVG 1.1//EN" "http://www.w3.org/Graphics/SVG/1.1/DTD/svg11.dtd" [
	<!ENTITY ns_extend "http://ns.adobe.com/Extensibility/1.0/">
	<!ENTITY ns_ai "http://ns.adobe.com/AdobeIllustrator/10.0/">
	<!ENTITY ns_graphs "http://ns.adobe.com/Graphs/1.0/">
	<!ENTITY ns_vars "http://ns.adobe.com/Variables/1.0/">
	<!ENTITY ns_imrep "http://ns.adobe.com/ImageReplacement/1.0/">
	<!ENTITY ns_sfw "http://ns.adobe.com/SaveForWeb/1.0/">
	<!ENTITY ns_custom "http://ns.adobe.com/GenericCustomNamespace/1.0/">
	<!ENTITY ns_adobe_xpath "http://ns.adobe.com/XPath/1.0/">
]>
<svg version="1.1" id="Ebene_1" xmlns:x="&ns_extend;" xmlns:i="&ns_ai;" xmlns:graph="&ns_graphs;"
	 xmlns="http://www.w3.org/2000/svg" xmlns:xlink="http://www.w3.org/1999/xlink" x="0px" y="0px" viewBox="0 0 112.9 113.2"
	 style="enable-background:new 0 0 112.9 113.2;" xml:space="preserve">
<style type="text/css">
	.st0{fill:none;stroke:currentColor;stroke-width:5;stroke-miterlimit:10;}
</style>
<metadata>
	<sfw  xmlns="&ns_sfw;">
		<slices></slices>
		<sliceSourceBounds  bottomLeftOrigin="true" height="113" width="112" x="0.6" y="0.1"></sliceSourceBounds>
	</sfw>
</metadata>
<polygon class="st0" points="92.5,45.5 88.5,38.8 100.5,26.6 86.8,12.6 74.9,23.2 66.2,19.6 65.9,2.6 57.6,2.6 55.6,2.6 47.3,2.6 
	47,19.6 38.3,23.2 26.4,12.6 12.8,26.6 24.7,38.8 20.7,45.5 3.1,45.5 3.1,66.1 20.1,66.1 23.1,76 12.1,87 26.4,101 37.7,89.3 
	46.3,95 46.3,110.6 55.6,110.6 57.6,110.6 66.9,110.6 66.9,95 75.5,89.3 86.8,101 101.1,87 90.2,76 93.2,66.1 110.1,66.1 
	110.1,45.5 "/>
</svg>
